<?xml version="1.0"?>
<svg xmlns="http://www.w3.org/2000/svg" xmlns:xlink="http://www.w3.org/1999/xlink" xmlns:svgjs="http://svgjs.com/svgjs" version="1.1" width="512" height="512" x="0" y="0" viewBox="0 0 512 512" style="enable-background:new 0 0 512 512" xml:space="preserve"><g><g xmlns="http://www.w3.org/2000/svg"><path d="m296 272-8 32v32h-72v-64z" fill="#f98800" data-original="#f98800" style=""/><path d="m320 400c56 0 104-8 168-32-16-16-96-56-160-56 0 0-3.131 11.131-8 16-8 8-8 8-24 8h-104c-8-8-5.24-28.45 0-32v-16c-11.141-2.6-19.7.519-29.632 6.188s-18.525 13.38-27.79 20.089-19.644 12.571-31.03 13.665c-20.422 1.964-18.406 3.511-38.855 5.162-.177 19.888-8.693 66.896 31.307 66.896z" fill="#be202e" data-original="#be202e" style=""/><circle cx="96" cy="368" fill="#333333" r="48" data-original="#333333" style=""/><path d="m24 264h64v64h-64z" fill="#e22526" data-original="#e22526" style=""/><circle cx="96" cy="368" fill="#dae3e8" r="16" data-original="#dae3e8" style=""/><circle cx="376" cy="367" fill="#333333" r="48" data-original="#333333" style=""/><circle cx="376" cy="367" fill="#dae3e8" r="16" data-original="#dae3e8" style=""/><path d="m184 368h112v32h-112z" fill="#e22526" data-original="#e22526" style=""/><path d="m432 400h56l-40-24z" fill="#e22526" data-original="#e22526" style=""/><path d="m354.84 231.91c-1.99 28.2-10.84 40.09-10.84 40.09h-140.55a96.01 96.01 0 0 1 51.55-177c47.01 0 80.62 32.23 93.21 73a121.286 121.286 0 0 1 3.79 16c3.25 19.48 3.73 35.32 2.84 47.91z" fill="#dae3e8" data-original="#dae3e8" style=""/><g><path d="m258.912 195.294c3.457-33.539 26.125-64.321 56.89-77.968a92.76 92.76 0 0 0 -17.116-11.716c-10.022 15.069-26.923 25.437-43.378 33.9-20.07 10.321-41.72 20.078-54.956 38.358a63.126 63.126 0 0 0 23.873 94.132h61.581c-19.281-20.177-29.764-48.862-26.894-76.706z" fill="#cbd5d8" data-original="#cbd5d8" style=""/><path d="m194.052 241.424a64.71 64.71 0 0 1 6.3-63.556c13.236-18.28 34.886-28.037 54.956-38.358 16.455-8.463 33.356-18.831 43.378-33.9a92.531 92.531 0 0 0 -43.686-10.61 96.01 96.01 0 0 0 -51.55 177h20.775a64.5 64.5 0 0 1 -30.173-30.576z" fill="#b0bbbf" data-original="#b0bbbf" style=""/></g><path d="m248 288a16 16 0 0 0 16 16h48a16 16 0 0 1 16 16 16 16 0 0 1 -16 16h-80a16 16 0 0 1 -16-16v-32a16 16 0 0 1 16-16 16 16 0 0 1 16 16z" fill="#fcc200" data-original="#fcc200" style=""/><path d="m354.84 231.91c-28.76-.3-96.12-1.67-114.84-7.91-24-8-16-56-16-56h124.21a121.286 121.286 0 0 1 3.79 16c3.25 19.48 3.73 35.32 2.84 47.91z" fill="#f29b3b" data-original="#f29b3b" style=""/><circle cx="264" cy="208" fill="#f78663" r="16" data-original="#f78663" style=""/><path d="m352 184a121.286 121.286 0 0 0 -3.79-16h-30.036c6.976 17.315 10.359 43.1 10.149 63.448 10.28.253 19.537.389 26.517.462.89-12.59.41-28.43-2.84-47.91z" fill="#f98800" data-original="#f98800" style=""/><path d="m296 208a8 8 0 0 1 -8-8v-8a8 8 0 0 1 16 0v8a8 8 0 0 1 -8 8z" fill="#683b11" data-original="#683b11" style=""/></g></g></svg>
