<?xml version="1.0" encoding="utf-8"?>
<!-- Generator: Adobe Illustrator 16.0.0, SVG Export Plug-In . SVG Version: 6.00 Build 0)  -->
<!DOCTYPE svg PUBLIC "-//W3C//DTD SVG 1.1//EN" "http://www.w3.org/Graphics/SVG/1.1/DTD/svg11.dtd">
<svg version="1.1" id="Vrstva_1" xmlns="http://www.w3.org/2000/svg" xmlns:xlink="http://www.w3.org/1999/xlink" x="0px" y="0px"
	 width="2620.5px" height="792px" viewBox="0 0 2620.5 792" enable-background="new 0 0 2620.5 792" xml:space="preserve">
<g>
	<path fill="#760B56" d="M813.568,322.269v75.946h94.741v11.684h-94.741v78.486h-12.954v-177.8h118.872v11.684H813.568z"/>
	<path fill="#760B56" d="M969.396,482.925c-11.771-4.484-20.955-10.287-27.559-17.399l5.842-9.651
		c6.263,6.604,14.688,11.981,25.273,16.129c10.58,4.151,21.717,6.223,33.4,6.223c16.931,0,29.719-3.215,38.354-9.651
		c8.636-6.434,12.954-14.815,12.954-25.146c0-7.957-2.286-14.308-6.858-19.05c-4.572-4.739-10.247-8.382-17.018-10.922
		c-6.775-2.54-15.919-5.164-27.433-7.874c-13.041-3.215-23.495-6.351-31.369-9.398s-14.564-7.747-20.065-14.097
		c-5.505-6.351-8.255-14.859-8.255-25.527c0-8.636,2.286-16.55,6.857-23.749c4.572-7.195,11.558-12.91,20.955-17.145
		c9.398-4.231,21.122-6.351,35.18-6.351c9.818,0,19.471,1.441,28.955,4.318c9.481,2.881,17.693,6.774,24.639,11.684l-4.826,10.414
		c-7.112-4.909-14.946-8.636-23.495-11.176c-8.553-2.54-16.979-3.81-25.272-3.81c-16.427,0-28.873,3.302-37.339,9.905
		c-8.469,6.604-12.699,15.157-12.699,25.654c0,7.961,2.285,14.312,6.857,19.05c4.572,4.743,10.243,8.382,17.019,10.922
		c6.771,2.54,16.002,5.251,27.686,8.128c13.037,3.219,23.451,6.351,31.242,9.398c7.786,3.048,14.435,7.664,19.938,13.843
		c5.501,6.184,8.256,14.521,8.256,25.02c0,8.636-2.33,16.51-6.985,23.622c-4.659,7.111-11.812,12.787-21.463,17.018
		c-9.652,4.234-21.507,6.35-35.561,6.35C993.566,489.655,981.164,487.413,969.396,482.925z"/>
	<path fill="#760B56" d="M1213.868,322.269h-64.009v-11.684h140.971v11.684h-64.009v166.116h-12.953V322.269z"/>
	<path fill="#760B56" d="M1336.422,470.097c-12.446-13.037-18.669-32.087-18.669-57.15V310.586h12.954v101.854
		c0,21.845,4.993,38.188,14.986,49.022c9.989,10.839,24.467,16.256,43.434,16.256c18.796,0,33.187-5.417,43.18-16.256
		c9.99-10.835,14.986-27.178,14.986-49.022V310.586h12.954v102.361c0,25.063-6.267,44.113-18.796,57.15
		c-12.533,13.041-30.06,19.558-52.578,19.558C1366.351,489.655,1348.868,483.138,1336.422,470.097z"/>
	<path fill="#760B56" d="M1520.699,310.586h12.954v166.116h102.361v11.684h-115.315V310.586z"/>
	<path fill="#760B56" d="M1858.006,488.385l-42.418-59.436c-6.267,0.849-12.025,1.27-17.271,1.27h-50.8v58.166h-12.954v-177.8
		h63.754c22.352,0,39.878,5.294,52.578,15.875c12.699,10.584,19.05,25.272,19.05,44.068c0,14.058-3.6,25.869-10.795,35.434
		c-7.199,9.568-17.486,16.3-30.861,20.192l44.45,62.23H1858.006z M1798.316,418.79c18.963,0,33.44-4.191,43.434-12.573
		c9.989-8.382,14.986-20.276,14.986-35.688c0-15.406-4.997-27.305-14.986-35.687c-9.993-8.382-24.471-12.573-43.434-12.573h-50.8
		v96.521H1798.316z"/>
	<path fill="#760B56" d="M1994.656,367.354c8.803,8.382,13.208,20.701,13.208,36.957v84.074h-12.191v-23.622
		c-4.235,7.791-10.414,13.843-18.542,18.161s-17.867,6.477-29.21,6.477c-14.732,0-26.377-3.469-34.925-10.414
		c-8.553-6.94-12.827-16.085-12.827-27.432c0-11.005,3.937-19.938,11.811-26.797s20.447-10.287,37.719-10.287h45.467v-10.668
		c0-12.358-3.346-21.757-10.033-28.194c-6.691-6.433-16.471-9.651-29.337-9.651c-8.807,0-17.232,1.523-25.273,4.571
		c-8.045,3.049-14.858,7.112-20.447,12.192l-6.35-9.144c6.604-5.926,14.562-10.541,23.876-13.844
		c9.311-3.302,19.05-4.952,29.21-4.952C1973.233,354.782,1985.85,358.972,1994.656,367.354z M1977.766,471.368
		c7.703-5.08,13.502-12.446,17.399-22.099v-24.892h-45.213c-13.041,0-22.479,2.373-28.32,7.111
		c-5.842,4.743-8.764,11.264-8.764,19.559c0,8.636,3.215,15.454,9.652,20.447c6.434,4.996,15.494,7.492,27.178,7.492
		C1960.704,478.987,1970.059,476.447,1977.766,471.368z"/>
	<path fill="#760B56" d="M2078.473,480.765c-10.16-5.755-18.121-13.756-23.876-24.003c-5.759-10.243-8.636-21.801-8.636-34.671
		c0-13.037,2.877-24.678,8.636-34.925c5.755-10.243,13.716-18.201,23.876-23.876c10.16-5.672,21.673-8.509,34.544-8.509
		c10.668,0,20.359,2.075,29.083,6.223c8.72,4.151,15.788,10.203,21.209,18.161l-9.397,6.857
		c-4.743-6.604-10.629-11.557-17.653-14.858c-7.029-3.303-14.775-4.953-23.241-4.953c-10.331,0-19.602,2.329-27.813,6.984
		c-8.216,4.66-14.649,11.22-19.305,19.686c-4.659,8.469-6.984,18.204-6.984,29.21c0,11.009,2.325,20.744,6.984,29.21
		c4.655,8.47,11.089,15.029,19.305,19.685c8.211,4.66,17.481,6.985,27.813,6.985c8.466,0,16.212-1.651,23.241-4.953
		c7.024-3.302,12.91-8.255,17.653-14.858l9.397,6.857c-5.421,7.962-12.489,14.014-21.209,18.161
		c-8.724,4.151-18.415,6.223-29.083,6.223C2100.146,489.401,2088.633,486.524,2078.473,480.765z"/>
	<path fill="#760B56" d="M2200.391,320.619c-2.032-1.945-3.048-4.358-3.048-7.239c0-2.878,1.016-5.334,3.048-7.366
		s4.484-3.048,7.366-3.048c2.877,0,5.334,0.977,7.365,2.921c2.032,1.948,3.049,4.361,3.049,7.239c0,2.881-1.017,5.334-3.049,7.366
		c-2.031,2.031-4.488,3.048-7.365,3.048C2204.875,323.54,2202.423,322.567,2200.391,320.619z M2201.406,355.798h12.7v132.588h-12.7
		V355.798z"/>
	<path fill="#760B56" d="M2371.837,369.26c9.651,9.652,14.478,23.539,14.478,41.656v77.47h-12.7v-76.454
		c0-14.898-3.771-26.245-11.303-34.036c-7.537-7.786-18.078-11.684-31.623-11.684c-15.581,0-27.856,4.659-36.83,13.97
		c-8.978,9.314-13.462,21.844-13.462,37.592v70.612h-12.7V355.798h12.192V384.5c4.572-9.311,11.386-16.594,20.447-21.845
		c9.057-5.246,19.768-7.873,32.131-7.873C2349.06,354.782,2362.185,359.607,2371.837,369.26z"/>
	<path fill="#760B56" d="M2558.268,355.798v118.364c0,22.011-5.334,38.267-16.002,48.768c-10.668,10.497-26.757,15.748-48.26,15.748
		c-12.192,0-23.709-1.865-34.544-5.588c-10.839-3.727-19.558-8.89-26.162-15.494l6.858-9.652
		c6.604,6.097,14.561,10.835,23.876,14.225c9.311,3.385,19.217,5.08,29.718,5.08c17.609,0,30.646-4.191,39.116-12.573
		c8.465-8.382,12.699-21.38,12.699-38.989v-22.352c-5.421,9.651-12.953,17.105-22.605,22.352c-9.652,5.251-20.49,7.874-32.512,7.874
		c-12.363,0-23.583-2.75-33.655-8.255c-10.077-5.501-17.994-13.164-23.749-22.987c-5.759-9.818-8.636-20.911-8.636-33.273
		c0-12.359,2.877-23.451,8.636-33.274c5.755-9.818,13.672-17.438,23.749-22.859c10.072-5.418,21.292-8.128,33.655-8.128
		c12.191,0,23.197,2.71,33.02,8.128c9.818,5.421,17.355,13.041,22.606,22.859v-29.972H2558.268z M2519.406,465.398
		c8.294-4.484,14.771-10.751,19.431-18.796c4.655-8.04,6.985-17.229,6.985-27.559c0-10.327-2.33-19.471-6.985-27.433
		c-4.659-7.957-11.137-14.18-19.431-18.669c-8.299-4.484-17.613-6.73-27.94-6.73c-10.331,0-19.602,2.246-27.813,6.73
		c-8.216,4.489-14.649,10.712-19.305,18.669c-4.659,7.962-6.984,17.105-6.984,27.433c0,10.33,2.325,19.519,6.984,27.559
		c4.655,8.045,11.089,14.312,19.305,18.796c8.211,4.489,17.481,6.731,27.813,6.731
		C2501.793,472.13,2511.107,469.887,2519.406,465.398z"/>
</g>
<g>
	<path fill="#FDFCFD" d="M338.743,695.334c-100.015,0-200.031-0.014-300.045,0.065c-2.672,0.002-3.275-0.602-3.274-3.272
		c0.073-197.418,0.073-394.836,0-592.253c-0.001-2.671,0.601-3.274,3.273-3.273c200.031,0.073,400.062,0.073,600.091,0
		c2.671-0.001,3.275,0.599,3.275,3.271c-0.073,197.417-0.073,394.836,0,592.254c0,2.672-0.603,3.274-3.274,3.272
		C538.774,695.32,438.759,695.334,338.743,695.334z M325.674,404.484c-0.289,1.319-1.172,2.553-0.586,4.104
		c1.092-1.214,1.719-2.529,1.805-4.092c0.068-0.527,0.584-1.351-0.137-1.49C325.877,402.836,325.738,403.758,325.674,404.484z
		 M144.512,560.604c5.747-6.902,4.916-15.535,6.212-23.607c0.501-0.987,1.186-1.946,2.34-1.899c1.003,0.04,0.673,1.082,0.612,1.704
		c-0.79,7.99-1.771,15.955-3.028,23.892c-0.717,4.53-2.573,8.844-2.509,13.511c-0.598,0.091-0.741,0.362-0.339,0.852
		c0.094-0.303,0.187-0.606,0.281-0.909c1.244-0.722,1.42-2.106,1.933-3.246c5.505-12.241,7.49-25.345,9.304-38.48
		c0.165-1.192,0.146-2.311,1.286-3.119c9.093-6.454,18.162-12.941,27.24-19.416c1.479-1.055,2.098-0.534,2.206,1.148
		c0.242,3.787,0.503,7.573,0.829,11.354c0.135,1.569-0.579,2.709-1.48,3.857c-5.527,7.036-9.639,14.914-13.434,22.961
		c-2.366,5.017-0.307,8.93,5.106,9.927c2.092,0.386,4.228,0.578,6.353,0.733c16.548,1.213,32.935-1.236,49.351-2.482
		c24.952-1.894,49.849-4.62,74.93-3.149c11.352,0.665,22.74,1.026,33.986,2.866c4.869,0.797,9.663,2.046,14.49,3.09
		c-4.083-1.399-6.651-4.923-10.185-7.031c-13.686-8.176-28.8-10.082-43.97-7.799c-18.023,2.716-35.928,6.233-54.111,7.843
		c-10.247,0.905-20.511,2.447-30.795,0.404c-2.21-0.438-5.443,0.106-6.057-2.593c-0.581-2.556,2.414-3.827,4.109-5.329
		c11.717-10.373,23.499-20.674,35.314-30.935c6.713-5.83,13.436-11.685,21.434-15.764c3.938-2.008,7.927-3.633,12.56-1.997
		c2.146,0.757,3.208-0.509,2.571-2.715c-0.391-1.355-1.022-2.66-1.683-3.917c-1.91-3.635-3.25-4.119-6.776-2.171
		c-3.106,1.717-6.224,3.475-9.087,5.558c-14.791,10.763-28.365,23.009-42.226,34.904c-9.079,7.793-17.596,16.287-28.309,22.014
		c-5.986,3.199-11.976,5.584-18.949,3.725c-4.249-1.132-5.243-2.813-3.497-6.95c1.478-3.499,3.214-6.875,5.339-10.027
		c13.337-19.794,27.638-38.755,44.591-55.729c10.955-10.967,23.176-19.239,38.288-22.637c17.023-3.827,34.285-4.331,51.621-2.305
		c7.56,0.884,14.881,2.839,22.197,4.814c1.054,0.285,2.609,0.402,2.681,1.886c0.065,1.381-1.346,1.976-2.35,2.405
		c-2.054,0.88-4.228,1.498-6.378,2.132c-11.138,3.277-22.3,6.489-32.708,11.79c-1.629,0.829-3.19,1.831-3.053,3.955
		c0.124,1.938,1.074,3.349,3.188,3.743c-0.003-3.323,0.89-6.448,4.203-7.569c11.651-3.941,23.358-7.796,35.517-9.896
		c9.063-1.565,18.245-0.479,27.372-0.703c5.796-0.145,10.625-2.073,13.826-7.15c1.957-3.102,3.693-6.353,5.793-9.352
		c3.396-4.849,6.832-9.745,13.093-11.41c-0.841-1.555-2.304-2.242-3.589-2.991c-4.111-2.397-7.168-5.818-9.772-9.683
		c-8.148-12.083-16.189-24.238-24.392-36.286c-3.498-5.139-7.63-9.674-13.535-12.234c-5.592-2.425-14.151-1.566-17.33,2.202
		c-4.754,5.64-7.003,12.477-8.558,19.568c-0.018,0.082,0.314,0.238,0.525,0.393c1.414-0.589,1.35-2.104,1.816-3.208
		c1.383-3.271,2.688-6.57,4.493-9.649c4.632-7.896,14.941-9.712,22.004-3.78c2.82,2.369,5.183,5.16,7.404,8.127
		c6.55,8.746,11.638,18.4,17.516,27.56c2.347,3.656,3.794,7.666,4.884,11.758c1.146,4.305,2.112,8.773-0.085,13.95
		c-0.907-3.521-3.567-3.938-5.96-4.851c-3.665-1.398-7.563-0.251-11.255-1.185c-0.063-1.411-0.064-2.83-0.203-4.234
		c-0.368-3.741-0.441-7.507-2.134-11.039c-3.539-7.392-10.214-10.901-17.354-13.066c-9.491-2.878-18.849-1.279-27.249,4.064
		c-8.229,5.232-12.078,12.968-11.668,22.759c-0.299,3.661-0.853,7.326-0.813,10.984c0.029,2.708-0.829,3.354-3.431,3.298
		c-10.185-0.229-20.354-0.396-30.394,2.106c-11.491,2.861-22.87,5.963-33.166,12.019c-3.932,2.312-7.39,5.552-12.965,4.99
		c1.487,1.353,3.027-0.147,3.937,2.063c-0.233,0.099-0.725,0.215-1.111,0.481c-6.82,4.707-14.372,8.292-20.813,13.587
		c-0.482,0.396-1.345,0.464-2.029,0.457c-3.322-0.039-6.607-0.287-9.771-1.498c-2.687-1.027-3.013-2.23-0.914-4.299
		c2.171-2.142,4.971-3.15,7.742-4.228c5.981-2.321,12.289-3.417,18.932-4.867c-4.301-0.837-7.9,0.483-11.565,1.194
		c-5.689,1.104-11.396,2.198-16.814,4.307c-2.232,0.869-4.857,1.533-5.12,4.707c-0.428,5.191-1.078,10.37-1.304,15.568
		c-0.099,2.27-0.813,3.667-2.669,4.945c-8.204,5.646-16.307,11.439-24.458,17.163c-0.639,0.447-1.229,1.219-2.307,0.632
		c0.535-14.555-3.667-27.795-12.243-39.527c-5.912-8.088-13.733-12.97-24.259-12.132c-2.873,0.229-5.744,0.469-9.31,0.761
		c2.184-2.23,4.287-3.19,7.046-4.133c-10.067-0.506-24.161,13.108-27.077,25.502c1.418-0.105,1.867-1.336,2.594-2.216
		c3.403-4.116,6.793-8.242,10.183-12.368c2.597-3.161,6.02-4.133,10.754-3.938c-5.387,2.863-9.708,5.871-12.8,10.338
		c-13.157,19.004-19.558,39.757-16.111,62.982c0.718,4.834,1.444,9.735,4.165,14.116c0.366-2.499,0.355-4.97,0.368-7.441
		c0.042-8.413-0.607-16.859,0.827-25.213c1.769-10.294,5.329-20.083,9.034-29.789c2.614-6.846,5.486-13.617,10.928-18.904
		c4.842-4.704,12.912-6.987,17.895-4.463c6.504,3.294,11.523,8.366,15.032,14.69c5.979,10.775,7.083,22.658,7.153,34.703
		c0.011,1.87-0.648,3.246-2.798,3.336c0.725-11.825-1.424-23.062-6.531-33.794c-4.953-10.408-16.372-13.511-25.85-6.954
		c-4.232,2.928-7.385,6.759-9.493,11.289c-1.945,4.177-5.963,6.89-5.684,12.854c0.272,5.804-2.95,11.791-3.39,17.939
		c-0.512,7.151-1.711,14.32-0.012,21.668c1.186-1.497,0.834-3.612,2.664-4.702c1.608,2.713,1.794,5.732,2.817,8.46
		c0.488,1.304-0.357,1.938-1.309,1.923c-2.729-0.041-3.231,1.85-3.716,3.851c-0.832,3.429-2.451,6.452-5.158,8.704
		c-2.904,2.414-5.985,4.619-9.035,6.852c-3.429,2.511-6.909,4.95-10.828,7.75c16.658,1.089,32.578,2.11,48.495,3.18
		c6.955,0.468,13.924,0.852,20.851,1.604c8.222,0.893,16.444,1.655,24.712,1.896c-0.164,1.475,1.142,3.769-1.224,4.136
		c-7.394,1.148-14.428,3.846-21.771,5.02c-13.57,2.167-27.188,1.212-40.771-0.259c-11.186-1.212-22.34-2.921-33.637-2.546
		c-1.939,0.064-5.195-1.019-5.449,1.295c-0.176,1.605,3.445,1.934,5.455,2.148c12.482,1.334,24.981,2.513,37.479,3.688
		c9.549,0.899,19.09,2.021,28.662,2.481c9.173,0.442,18.461,1.924,27.458-1.683c17.584-7.049,35.026-5.674,52.304,1.229
		c7.166,2.862,14.377,5.816,22.107,6.433c18.088,1.44,36.205,2.518,54.313,3.699c14.205,0.927,28.408,1.907,42.624,2.631
		c6.621,0.337,13.322,1.263,19.896,0.098c12.822-2.271,24.641-7.473,36.188-13.315c0.436-0.222,0.841-0.442,0.722-1.132
		c-0.236-0.646-0.917-0.487-1.447-0.543c-6.449-0.678-8.228-2.212-9.435-8.5c-1.332-6.935,0.084-13.72,1.524-20.44
		c0.518-2.417,0.636-4.646-1.269-6.15c-1.769-1.397-3.134,0.922-4.755,1.333c-11.74-0.126-23.479-0.251-35.221-0.381
		c-1.505-0.017-2.679,0.749-3.917,1.481c-6.547,3.871-13.33,7.34-20.727,9.184c-16.409,4.088-32.961,7.548-49.553,10.831
		c-4.965,0.981-10.057,1.72-14.555,4.317c-0.667,0.385-1.638,0.649-1.621,1.698c0.018,1.062,0.966,1.329,1.696,1.568
		c1.795,0.591,3.635,1.432,5.467,1.455c10.075,0.134,20.103,0.983,30.146,1.626c15.722,1.005,31.449,1.968,47.183,2.763
		c4.824,0.243,9.679,0.701,14.521,0.103c0.024,6.496-2.035,9.13-8.177,10.377c-2.355,0.479-4.738,0.283-7.09-0.005
		c-26.39-3.241-52.805-6.332-79.369-7.575c-13.131-0.615-25.499-2.914-36.505-10.864c1.594-1.209,3.43-2.168,5.523-2.675
		c3.798-0.921,7.575-1.934,11.392-2.768c1.577-0.346,1.926-0.931,1.333-2.437c-3.209-8.148-5.817-16.551-9.939-24.314
		c-1.081-2.036-2.432-4.582-5.131-4.413c-5.336,0.334-10.73,0.404-16.433,1.566c4.173,5.413,5.34,11.355,5.598,17.613
		c0.185,4.492,0.446,8.997,1.026,13.451c0.314,2.412-0.241,2.791-2.537,2.521c-8.252-0.969-16.546-1.45-24.858-1.515
		c-2.51-0.021-5.021-0.003-8.516-0.003c5.046-2.276,9.173-4.17,13.922-4.061c2.839,0.066,3.582-1.033,2.75-3.921
		c-2.077-7.204-3.707-14.512-1.144-21.989c0.572-1.668-0.51-1.69-1.663-1.771c-3.905-0.268-7.822-0.445-11.704-0.914
		c-2.599-0.313-3.833,0.815-4.875,3.018c-2.788,5.891-3.141,12.345-4.585,18.545c-1.763-0.641-3.268-1.927-5.247-2.034
		c-4.136-0.229-8.283-0.357-12.404-0.758c-6.548-0.638-12.828-2.014-17.686-7.047c-3.012-3.12-3.414-7.229-4.375-11.081
		c-0.568-2.28-1.623-3.14-3.868-3.231c-4.013-0.166-8.018-0.539-12.027-0.817c-8.054-0.56-8.054-0.558-7.924-8.496
		c0.005-0.355-0.008-0.712,0.002-1.067c0.237-8.72-0.58-17.435,0.797-26.17c1.209-7.675,3.538-14.497,8.65-20.58
		c7.176-8.541,17.99-7.852,21.667,4.612c0.666,2.256,1.346,4.586,3.168,6.986c0.362-4.391-1.718-7.966-1.104-11.814
		c1.136,1.454,1.984,2.975,2.764,4.528c3.99,7.957,3.597,16.545,3.568,25.077c-0.59,2.245-2.884,2.641-4.336,3.947
		c-0.571,0.515-1.302,1.312-2.178,0.758c-0.851-0.538-0.304-1.516-0.347-2.305c-0.537-9.813-1.711-19.484-5.864-28.57
		c-1.483-3.246-3.84-5.076-7.376-5.188c-3.537-0.113-6.179,1.658-7.844,4.633c-1.378,2.46-2.462,5.099-3.512,7.725
		c-4.1,10.249-4.141,21.079-4.064,31.839c0.025,3.485-0.307,7.223,1.258,10.626c1.094-6.547,1.826-13.092,2.74-19.609
		c0.786-5.605,1.213-11.303,3.646-16.559c1.795-3.876,4.362-5.374,9.104-5.203c3.445,0.124,6.127,2.29,7.31,6.187
		c1.029,3.392,1.422,6.916,2.002,10.411c1.092,6.575-1.139,10.919-7.036,14.01c-3.866,2.028-7.018,5.235-10.228,8.231
		c-0.766,0.716-1.698,1.443-0.718,2.683c0.875,1.104,1.891,0.79,2.857,0.261c0.72-0.396,1.332-0.984,2.012-1.458
		c7.193-4.997,14.391-9.99,21.587-14.982c1.242,0.923,0.578,2.101,0.45,3.224c-0.678,5.943-2.459,11.731-2.478,17.766
		c-0.085,0.021-0.182,0.026-0.251,0.072c-0.041,0.026-0.04,0.118-0.057,0.182C144.341,560.808,144.427,560.707,144.512,560.604z
		 M441.735,497.183c1.177-0.283,1.496-1.426,2.15-2.207c6.669-7.965,12.735-16.491,21.688-22.594
		c-9.705-0.89-21.473,16.581-23.787,24.852c-0.063,0.057-0.128,0.113-0.191,0.17C441.641,497.332,441.688,497.258,441.735,497.183z
		 M382.608,478.723c1.368,0.127,2.532-0.554,3.738-1c11.969-4.435,23.263-10.186,33.133-18.321
		c7.511-6.19,15.691-6.463,24.448-4.012c8.763,2.452,16.548,7.001,24.322,11.534c4.154,2.422,8.199,5.029,12.338,7.582
		c-1.188,1.493-2.427,1.306-3.571,1.079c-3.035-0.603-5.889,0.094-8.725,1.03c-8.173,2.702-14.245,8.116-18.491,15.363
		c-10.656,18.188-16.99,37.487-13.643,58.942c1.01,6.479,2.19,12.946,5.988,18.84c0.621-1.614,0.328-2.993,0.237-4.344
		c-0.58-8.634-2.103-17.364-1.083-25.898c2.031-17.01,7.104-33.244,15.373-48.382c3.161-5.788,7.757-9.64,13.962-11.947
		c6.987-2.599,13.841-3.149,21.188,0.403c-1.301-2.255-2.195-3.009-4.236-4.412c-20.279-13.951-42.753-23.241-65.938-31
		c-8.244-2.759-12.419-1.14-16.306,6.539c-5.286,10.444-12.208,19.465-21.769,26.351c-0.533,0.385-1.671,0.603-0.932,1.729
		c-0.433-0.742-0.921-0.073-1.379-0.036c-0.041,0.004-0.063,0.28-0.093,0.43C381.734,479.282,382.265,479.288,382.608,478.723z
		 M516.9,499.799c-5.388-4.584-10.311-9.783-16.972-12.669c-6.337-2.746-12.747-5.214-19.725-5.804
		c3.307,3.233,5.924,6.708,7.742,10.748c0.329,0.731,2.117,2.002-0.521,2.394c-1.229,0.182-0.213,1.263,0.034,1.566
		c4.754,5.848,5.53,13.134,7.424,20.032c3.903,14.229,5.239,28.734,2.891,43.241c-2.444,15.096-6.63,29.75-17.174,41.635
		c-0.08,0.281-0.311,0.729-0.214,0.814c0.324,0.293,0.57,0.011,0.736-0.303c16.422-13.011,33.041-25.705,46.249-42.342
		c10.694-13.47,20.944-27.266,29.966-41.83c13.772-22.229,20.482-47.253,26.197-72.524c0.448-1.979-0.138-2.822-2.166-3.505
		c-5.707-1.922-11.538-3.306-17.374-4.723c-1.635-0.396-2.825-0.111-4.265,0.579c-7.918,3.804-15.856,7.607-24.506,9.502
		c-4.401,0.963-6.597-0.351-8.331-4.634c-5.026,7.104-9.131,14.695-12.192,22.756c-2.502,6.589-4.107,13.382-3.253,20.686
		c0.626,5.348,3.831,9.299,5.874,13.879C517.16,499.446,517.02,499.613,516.9,499.799z M187.148,634.215
		c104.682,68.753,245.992,59.944,341.714-26.567c57.704-52.15,89.654-117.807,93.687-195.637
		c3.93-75.892-19.826-143.186-69.722-200.495c-41.561-47.738-93.916-78.425-156.026-90.833
		c-72.354-14.455-140.758-2.449-203.813,36.006C87.189,221.212,35.515,348.907,67.306,468.384c4.53-2.876,9.089-5.978,14.569-5.964
		c3.657,0.009,3.292-1.544,2.696-3.95c-3.946-15.951-6.163-32.199-6.866-48.562c-0.803-18.685,0.289-37.316,3.331-55.851
		c3.361-20.479,8.959-40.31,17.048-59.333c8.527-20.054,19.248-38.938,32.542-56.334c12.026-15.737,25.635-29.866,40.669-42.729
		c15.625-13.368,32.885-24.146,51.122-33.491c14.878-7.625,30.478-13.313,46.514-17.964c19.47-5.646,39.38-8.684,59.547-9.604
		c18.563-0.846,37.077,0.322,55.486,3.347c20.475,3.364,40.31,8.943,59.316,17.073c20.032,8.568,38.957,19.213,56.341,32.54
		c15.714,12.048,29.859,25.635,42.697,40.686c12.942,15.176,23.514,31.861,32.676,49.514c10.345,19.932,17.627,40.963,22.461,62.841
		c3.725,16.854,5.728,33.938,6.019,51.218c0.276,16.466-0.865,32.803-3.496,49.073c-2.188,13.532-5.43,26.795-9.72,39.771
		c-4.905,14.837-11.113,29.122-18.729,42.834c-6.313,11.366-13.13,22.338-20.95,32.729c-11.98,15.917-25.751,30.067-40.876,43.004
		c-14.895,12.74-31.288,23.135-48.593,32.196c-15.443,8.088-31.652,14.173-48.382,19.046c-19.581,5.703-39.598,8.722-59.875,9.748
		c-9.786,0.495-19.641,0.363-29.494-0.391c-10.365-0.795-20.654-1.894-30.865-3.753c-20.506-3.731-40.331-9.693-59.305-18.383
		c-2.181-0.998-4.462-1.31-6.833-1.645c-5.753-0.813-11.56-0.733-17.316-1.066C202.018,634.579,194.964,633.425,187.148,634.215z
		 M165.865,512.229c5.798-4.13,11.056-7.958,16.419-11.634c1.287-0.882,1.48-1.896,1.549-3.249
		c0.206-4.016,0.436-8.034,0.823-12.035c0.376-3.884,1.901-7.105,5.347-9.393c5.425-3.599,11.711-4.954,17.728-6.848
		c27.799-8.747,54.555-21.474,84.473-22.335c2.739-0.078,6.502,1.439,8.185-1.291c1.436-2.332,1.287-5.692,1.645-8.623
		c1.034-8.456,3.593-16.128,10.488-21.758c3.94-3.217,5.842-7.713,7.06-12.429c1.27-4.921,2.942-9.692,4.664-14.448
		c5.473-15.119,20.813-20.514,34.556-12.244c4.099,2.467,6.551,2.341,10.435-0.56c6.075-4.538,12.013-9.278,18.614-13.053
		c2.248-1.284,4.596-2.549,7.06-3.278c8.815-2.608,14.399,1.762,15.363,11.726c0.125,1.296-0.613,3.397,1.344,3.591
		c5.903,0.586,11.843,1.06,17.314,0.48c-47.492-65.76-78.408-137.632-84.72-219.168c-0.908,5.518-1.468,10.997-2.118,16.465
		c-2.919,24.519-8.135,48.551-15.819,72.007c-10.83,33.053-25.76,64.037-45.939,92.539c-8.242,11.642-17.378,22.417-27.08,32.727
		c-10.747,11.418-22.688,21.58-35.497,30.679c-14.54,10.327-29.997,19.043-46.554,25.639c-23.576,9.392-48.117,14.256-73.528,14.356
		c-2.601,0.01-2.699,1.086-2.284,2.96c1.175,5.308,2.511,10.584,3.488,15.926c0.474,2.592,1.578,3.071,4.076,2.968
		c7.083-0.293,14.191-1.156,21.264,0.347c18.277,3.884,30.361,14.96,37.18,32.063C163.613,499.916,165.184,505.692,165.865,512.229z
		 M160.422,633.801c107.585,83.092,278.609,86.842,392.857-28.453c105.668-106.635,117.118-281.327,15.009-402.241
		C468.833,85.333,296.938,63.679,171.486,150.069C47.41,235.513,22.163,382.512,55.439,482.442c5.179-5.193,5.287-5.642,3.77-11.634
		c-18.293-72.25-11.019-141.806,22.545-208.381c15.727-31.194,36.911-58.387,62.799-81.868
		c35.188-31.918,75.682-54.229,121.728-65.958c72.095-18.365,141.556-10.798,208.011,22.713c28.933,14.59,54.479,33.953,76.807,57.4
		c33.155,34.821,56.763,75.328,69.423,121.741c19.77,72.474,13.404,142.703-19.876,210.292
		c-14.872,30.203-34.697,56.788-58.999,79.958c-34.713,33.096-75.111,56.801-121.448,69.221
		c-86.674,23.232-167.972,10.495-243.084-39.032C171.744,633.354,166.535,634,160.422,633.801z M399.319,620.422
		c-7.854-1.233-15.557-0.313-23.18,1.188c-14.19,2.795-28.507,3.097-42.84,2.081c-17.626-1.249-35.209-3.081-52.87-3.913
		c-15.053-0.711-30.101-1.54-45.15-2.338c-20.973-1.111-41.944-2.269-62.918-3.353c-13.847-0.716-27.695-1.465-41.552-1.962
		c-16.002-0.574-32.033-1.503-47.989,0.605c-3.786,0.5-7.705,1.099-11.677,3.289c1.377,0.438,2.146,0.72,2.935,0.926
		c5.506,1.439,11.167,1.364,16.778,1.903c20.381,1.958,40.759,3.9,61.188,5.305c11.243,0.773,22.476,1.631,33.73,2.282
		c29.621,1.717,59.273,2.639,88.907,4.021c20.27,0.942,40.543,1.815,60.817,2.637c6.278,0.255,12.546,0.21,18.848-0.178
		c6.272-0.387,11.872-3.24,18.004-3.904C381.888,627.977,390.453,623.794,399.319,620.422z M548.268,386.909
		c-15.833-0.595-30.643-1.084-45.445-1.724c-19.655-0.852-39.305-1.844-58.958-2.729c-12.674-0.569-25.396-0.565-38.009-1.766
		c-7.348-0.7-12.809,2.224-18.372,5.907c-1.985,1.314-3.795,2.719-4.786,5.067c-1.568,3.72-1.11,4.733,2.791,4.902
		c18.477,0.797,36.956,1.54,55.432,2.342c11.018,0.479,22.03,0.995,33.042,1.559c20.717,1.059,41.43,2.162,62.144,3.253
		c1.226,0.063,2.287,0.042,2.946-1.338C541.535,397.175,543.878,391.883,548.268,386.909z M536.504,408.391
		c-7.402-1.316-14.547-1.074-21.632-1.48c-25.567-1.469-51.156-2.562-76.734-3.851c-11.365-0.573-22.724-1.299-34.086-1.909
		c-6.623-0.354-13.275,0.006-19.885-0.843c-1.188-0.152-2.704-0.464-3.083,1.471c-0.811,4.139,5.47,12.362,9.758,12.609
		c22.251,1.281,44.506,2.517,66.757,3.795c8.876,0.51,17.752,1.03,26.62,1.65c14.407,1.011,28.862,1.362,43.211,3.167
		c1.954,0.245,3.123-0.409,3.86-2.221C532.938,416.736,534.672,412.726,536.504,408.391z M577.198,383.979
		c0.008-5.493-3.587-7.548-8.924-5.507c-7.954,3.042-14.322,8.03-19.209,15.11c-6.387,9.254-10.145,19.742-14.509,29.937
		c-1.758,4.103-2.652,8.608-2.909,13.126c-0.23,4.084,1.414,5.356,5.264,4.356c3.546-0.921,7.074-1.848,10.515-3.178
		c9.716-3.76,17.908-10.104,26.712-15.416c3.609-2.179,5.063-5.076,3.813-9.27c-0.501-1.685-0.568-3.498-0.828-5.254
		C575.925,399.736,576.233,391.592,577.198,383.979z M464.683,611.45c-7.708,0-14.599-0.188-21.476,0.037
		c-16.25,0.534-29.236-5.108-37.545-19.583c-5.394-9.396-9.295-19.376-11.041-30.154c-0.563-3.474-0.684-6.837-0.179-10.817
		c1.878,1.818,1.741,4.041,3.597,5.544c0.057-10.748,0.781-21.058,2.21-31.351c2.516-18.131,10.772-32.974,24.792-44.519
		c6.551-5.394,14.024-8.703,22.983-7.105c2.259,0.401,4.773,1.104,7.741-0.296c-6.85-1.256-12.927-3.677-19.417-2.328
		c-10.425,2.161-20.03,6.351-27.278,14.229c-6.712,7.296-10.408,16.526-13.704,25.809c-5.958,16.78-8.926,34.097-8.227,51.877
		c0.416,10.588,2.209,20.986,9.265,29.646c3.858,4.735,8.335,8.765,13.338,12.219c1.664,1.15,2.02,1.754-0.244,2.631
		c-3.773,1.464-7.047,3.873-10.327,6.2c-0.862,0.611-2.679,0.917-2.093,2.386c0.416,1.047,1.941,1.075,3.166,1.15
		c13.39,0.834,26.767,1.742,40.204,1.38C448.898,618.177,456.575,615.617,464.683,611.45z M356.871,548.566
		c-0.149-1.977-1.261-2.37-2.05-3.03c-7.977-6.671-17.736-7.999-27.537-8.968c-11.469-1.136-22.964-0.889-34.46-0.146
		c-5.171,0.334-6.805-1.516-7.278-6.813c-0.653-7.3,2.405-13.358,5.977-19.309c2.788-4.646,6.255-8.986,7-14.588
		c0.412-3.103,1.455-3.186,4.03-1.654c21.16,12.574,42.405,25.009,63.629,37.475c6.189,3.636,12.401,7.235,18.637,10.87
		c1.155-2.594,0.085-3.681-1.813-4.81c-28.186-16.752-56.323-33.582-84.478-50.387c-1.502-0.897-2.921-2.118-4.807-0.563
		c-1.873,1.545-0.697,3.103-0.036,4.461c1.857,3.82,1.504,7.185-1.101,10.587c-1.462,1.91-3.092,3.573-4.861,5.149
		c-7.729,6.889-16.052,12.952-25.105,17.989c-5.994,3.337-12.016,6.623-18.011,9.955c-0.815,0.453-1.917,0.968-1.763,2.014
		c0.178,1.212,1.455,0.911,2.343,1.043c7.915,1.171,15.855,0.808,23.791,0.323c3.619-0.223,7.226-0.632,11.05-0.975
		c-0.625,2.602-2.533,3.079-4.347,3.438c-7.659,1.512-15.337,2.923-23.008,4.377c-3.255,0.617-6.51,1.232-9.759,1.88
		c-3.077,0.612-6.146,1.264-9.218,1.897c12.009,1.082,23.775-0.669,35.54-1.979c16.59-1.852,33.05-4.716,49.664-6.468
		C332.382,538.914,345.083,540.401,356.871,548.566z M105.341,470.325c-4.793-1.26-9.592-1.649-14.437-1.093
		c-18.634,2.141-29.586,14.077-37.403,29.705c-4.654,9.304-7.508,19.27-10.022,29.385c-4.432,17.835-4.089,35.38,2.105,52.66
		c2.558,7.136,6.885,13.213,13.716,17.05c1.067,0.6,2.277,2.113,3.705,0.377c1.258-1.528,0.198-2.701-0.649-3.787
		c-6.234-7.975-9.975-17.157-12.803-26.733c-1.334-4.52-2.379-9.172-1.875-14.062c2.576,0.54,1.301,3.464,3.291,4.159
		c-0.142-2.258-0.52-4.486-0.378-6.683c0.588-9.094,0.773-18.215,2.054-27.264c2.091-14.763,7.127-28.139,17.477-39.232
		c6.33-6.785,13.143-12.86,22.643-14.373C96.858,469.782,101.144,470.325,105.341,470.325z M483.474,490.369
		c-3.304-4.344-6.46-6.397-11.414-5.486c-5.086,0.936-7.644,4.406-9.869,8.356c-7.357,13.054-13.087,26.745-14.492,41.807
		c-0.589,6.309-0.098,12.716-0.098,20.098c0.608-1.553,0.775-2.118,1.045-2.631c0.465-0.884,0.265-2.495,1.608-2.441
		c1.287,0.052,1.117,1.571,1.428,2.521c0.979,2.994,1.04,6.254,2.548,9.415c0.888-3.081,0.981-5.896,0.992-8.732
		c0.028-8.758,0.032-17.507,1.42-26.205c1.46-9.166,4.05-17.687,11.249-24.201c5.813-5.262,11.433-4.742,15.662,1.813
		c1.015,1.573,1.763,3.344,2.456,5.094c1.069,2.702,1.987,5.464,2.971,8.2c0.715-3.519,0.365-6.866-0.543-10.159
		c-1.888-6.84-5.363-12.573-11.472-16.489c-0.956-0.613-2.375-1.279-1.591-2.711c0.732-1.334,1.901-0.19,2.831,0.054
		C479.666,489.051,481.086,489.587,483.474,490.369z M387.18,531.164c0.57-5.235,1.684-9.408,3.242-13.481
		c2.023-5.29,3.743-10.701,5.912-15.929c0.957-2.308,0.278-2.521-1.747-2.601c-6.645-0.257-13.282-0.22-19.921,0.108
		c-6.08,0.302-18.734,3.414-23.649,5.871C365.784,509.812,376.306,520.046,387.18,531.164z M470.994,456.046
		c5.354,2.656,10.951,2.684,16.524,1.396c6.649-1.537,11.486-5.599,13.896-12.004c1.991-5.297,1.349-10.673-0.807-15.879
		c-0.573-1.386-1.643-3.06,1.374-2.836c6.151,0.453,12.306,0.881,18.466,1.197c1.89,0.1,1.914,0.745,1.14,2.147
		c-2.23,4.043-4.402,8.12-6.604,12.182c-4.509,8.318-9.331,16.507-10.814,26.08c-0.737,4.764-0.933,9.447,1.992,13.775
		c0.173-4.467,0.581-8.785,2.104-13.036c4.84-13.504,10.795-26.479,17.63-39.075c0.762-1.4,1.959-2.688,1.814-4.473
		c-11.41-0.538-22.737-1.07-34.415-1.621c1.958,3.331,2.991,6.703,3.834,10.131c2.445,9.945-0.99,16.027-10.651,19.135
		C481.441,454.782,476.389,456.215,470.994,456.046z M351.784,500.795c0.644-0.233,1.29-0.453,1.927-0.702
		c14.17-5.534,28.685-8.749,43.997-6.499c1.364,0.2,2.155-0.275,2.905-1.413c3.887-5.891,7.428-12.058,12.989-16.834
		C391.969,481.464,369.751,485.855,351.784,500.795z M376.537,399.222c-0.396-5.875,1.418-10.677,5.902-14.266
		c5.091-4.074,10.535-7.551,17.081-8.905c3.405-0.705,4.741-4.267,3.403-8.786c-0.868-2.938-2.846-3.496-6.567-2.063
		c-6.84,2.636-12.655,6.928-18.177,11.559c-2.964,2.485-6.296,4.698-8.413,8.123c-0.641,1.034-1.358,1.923-0.506,3.207
		C371.715,391.783,374.115,395.51,376.537,399.222z M484.745,522.344c0.662-3.509-0.219-8.651-1.992-12.705
		c-2.943-6.729-10.441-7.874-15.225-2.263c-2.087,2.448-3.512,5.297-4.582,8.349c-3.757,10.712-4.151,21.786-3.555,32.947
		c0.135,2.524-0.362,5.203,0.964,7.617c1.129-5.942,1.828-11.883,2.738-17.788c1.15-7.462,2.004-15.03,5.615-21.854
		c3.073-5.807,7.709-6.211,12.081-1.217C482.485,517.364,483.34,519.796,484.745,522.344z"/>
	<path fill="#BFBFBF" d="M187.148,634.215c7.816-0.79,14.869,0.364,21.895,0.771c5.756,0.333,11.563,0.254,17.316,1.066
		c2.371,0.335,4.652,0.646,6.833,1.645c18.974,8.688,38.799,14.65,59.305,18.383c10.21,1.859,20.5,2.959,30.865,3.753
		c9.853,0.754,19.708,0.886,29.494,0.391c20.277-1.026,40.294-4.045,59.875-9.748c16.729-4.873,32.938-10.958,48.382-19.046
		c17.305-9.063,33.698-19.456,48.593-32.196c15.125-12.937,28.896-27.087,40.876-43.004c7.82-10.391,14.639-21.361,20.95-32.729
		c7.615-13.712,13.823-27.997,18.729-42.834c4.289-12.978,7.53-26.239,9.72-39.771c2.631-16.271,3.772-32.607,3.496-49.073
		c-0.291-17.28-2.294-34.364-6.019-51.218c-4.834-21.878-12.116-42.91-22.461-62.841c-9.162-17.652-19.732-34.338-32.676-49.514
		c-12.838-15.051-26.983-28.638-42.697-40.686c-17.384-13.327-36.309-23.972-56.341-32.54c-19.008-8.13-38.843-13.709-59.317-17.073
		c-18.408-3.024-36.923-4.192-55.485-3.347c-20.167,0.919-40.077,3.958-59.547,9.604c-16.036,4.65-31.636,10.341-46.514,17.965
		c-18.237,9.346-35.497,20.122-51.122,33.49c-15.034,12.863-28.644,26.992-40.669,42.729
		c-13.294,17.396-24.015,36.281-32.542,56.334c-8.089,19.023-13.687,38.854-17.048,59.333c-3.042,18.534-4.134,37.166-3.331,55.851
		c0.703,16.361,2.919,32.609,6.866,48.562c0.596,2.406,0.96,3.959-2.696,3.95c-5.48-0.014-10.039,3.088-14.569,5.964
		c-31.794-119.478,19.88-247.173,125.678-311.696c63.054-38.455,131.459-50.461,203.813-36.006
		c62.11,12.408,114.467,43.095,156.026,90.833c49.896,57.31,73.65,124.604,69.721,200.495c-4.03,77.83-35.98,143.484-93.686,195.637
		C433.141,694.159,291.831,702.968,187.148,634.215z"/>
	<path fill="#760B56" d="M165.865,512.229c-0.682-6.537-2.251-12.313-4.468-17.873c-6.819-17.103-18.902-28.179-37.18-32.063
		c-7.073-1.503-14.181-0.64-21.264-0.347c-2.498,0.104-3.602-0.376-4.076-2.968c-0.978-5.342-2.313-10.618-3.488-15.926
		c-0.415-1.874-0.316-2.95,2.284-2.96c25.411-0.103,49.952-4.966,73.528-14.356c16.557-6.596,32.015-15.313,46.554-25.639
		c12.81-9.099,24.75-19.26,35.497-30.679c9.702-10.31,18.838-21.084,27.08-32.727c20.179-28.501,35.109-59.486,45.939-92.539
		c7.685-23.457,12.899-47.489,15.819-72.007c0.65-5.468,1.21-10.947,2.118-16.465c6.312,81.536,37.228,153.408,84.72,219.168
		c-5.473,0.579-11.411,0.105-17.314-0.48c-1.957-0.193-1.219-2.295-1.344-3.591c-0.964-9.964-6.548-14.333-15.363-11.726
		c-2.464,0.729-4.812,1.994-7.06,3.278c-6.603,3.774-12.539,8.515-18.614,13.053c-3.884,2.9-6.336,3.026-10.435,0.56
		c-13.741-8.271-29.082-2.875-34.556,12.244c-1.722,4.755-3.396,9.527-4.665,14.448c-1.216,4.716-3.117,9.212-7.059,12.429
		c-6.895,5.63-9.454,13.302-10.488,21.758c-0.358,2.931-0.209,6.291-1.645,8.623c-1.683,2.73-5.446,1.213-8.185,1.291
		c-29.918,0.861-56.674,13.588-84.473,22.335c-6.016,1.894-12.302,3.249-17.728,6.848c-3.446,2.286-4.971,5.509-5.347,9.393
		c-0.387,4.001-0.617,8.021-0.823,12.035c-0.069,1.354-0.262,2.367-1.549,3.249C176.921,504.271,171.664,508.099,165.865,512.229z"
		/>
	<path fill="#7D185F" d="M160.422,633.801c6.113,0.199,11.322-0.445,16.69,3.095c75.112,49.527,156.41,62.266,243.084,39.032
		c46.337-12.42,86.735-36.125,121.448-69.222c24.302-23.17,44.127-49.754,58.999-79.957c33.28-67.589,39.646-137.818,19.876-210.292
		c-12.66-46.413-36.268-86.92-69.423-121.742c-22.327-23.446-47.874-42.81-76.807-57.399
		c-66.455-33.512-135.916-41.079-208.011-22.713c-46.046,11.729-86.541,34.04-121.728,65.958
		c-25.888,23.481-47.072,50.673-62.799,81.868c-33.564,66.575-40.839,136.13-22.545,208.381c1.517,5.992,1.41,6.438-3.77,11.634
		C22.16,382.512,47.408,235.514,171.484,150.07c125.451-86.391,297.346-64.736,396.801,53.037
		c102.109,120.915,90.659,295.606-15.008,402.241C439.032,720.641,268.007,716.891,160.422,633.801z"/>
	<path fill="#545454" d="M480.597,600.94c10.547-11.883,14.731-26.537,17.177-41.633c2.35-14.507,1.014-29.012-2.891-43.241
		c-1.894-6.898-2.67-14.186-7.424-20.032c-0.247-0.305-1.265-1.386-0.034-1.566c2.64-0.392,0.852-1.661,0.521-2.394
		c-1.818-4.04-4.437-7.515-7.742-10.748c6.978,0.59,13.388,3.058,19.725,5.804c6.661,2.886,11.584,8.085,16.973,12.668
		c0.271,0.052,0.72,0.228,0.785,0.135c0.237-0.338-0.036-0.534-0.364-0.634c-2.043-4.58-5.248-8.531-5.874-13.879
		c-0.854-7.304,0.751-14.097,3.253-20.686c3.063-8.061,7.166-15.652,12.192-22.756c1.734,4.283,3.93,5.597,8.331,4.634
		c8.648-1.895,16.588-5.698,24.506-9.502c1.438-0.69,2.63-0.976,4.265-0.579c5.836,1.417,11.667,2.801,17.374,4.723
		c2.028,0.683,2.614,1.524,2.166,3.505c-5.715,25.271-12.425,50.295-26.197,72.524c-9.021,14.564-19.271,28.36-29.966,41.83
		c-13.208,16.637-29.827,29.331-46.249,42.341C480.948,601.282,480.772,601.111,480.597,600.94z"/>
	<path fill="#545454" d="M146.592,539.668c-7.197,4.992-14.394,9.985-21.587,14.982c-0.681,0.474-1.292,1.063-2.012,1.458
		c-0.966,0.529-1.981,0.843-2.857-0.261c-0.98-1.238-0.047-1.967,0.718-2.683c3.209-2.996,6.362-6.203,10.228-8.231
		c5.896-3.091,8.128-7.435,7.036-14.01c-0.581-3.495-0.973-7.021-2.002-10.411c-1.183-3.896-3.864-6.063-7.31-6.187
		c-4.743-0.171-7.31,1.327-9.104,5.203c-2.433,5.256-2.86,10.952-3.646,16.559c-0.914,6.519-1.646,13.063-2.74,19.609
		c-1.565-3.403-1.233-7.141-1.258-10.626c-0.077-10.76-0.035-21.59,4.064-31.839c1.05-2.626,2.134-5.265,3.512-7.725
		c1.666-2.975,4.307-4.746,7.844-4.633c3.536,0.112,5.893,1.942,7.376,5.188c4.153,9.086,5.328,18.757,5.864,28.57
		c0.043,0.789-0.503,1.767,0.347,2.305c0.876,0.554,1.607-0.243,2.178-0.758c1.452-1.309,3.746-1.702,4.336-3.947
		c1.848-0.193,3.238-1.066,4.072-2.76c2.15-0.09,2.81-1.466,2.798-3.336c-0.07-12.045-1.174-23.928-7.153-34.703
		c-3.509-6.324-8.528-11.397-15.032-14.691c-4.983-2.523-13.052-0.24-17.895,4.463c-5.442,5.287-8.314,12.061-10.928,18.905
		c-3.705,9.706-7.265,19.495-9.034,29.789c-1.434,8.354-0.784,16.8-0.827,25.213c-0.013,2.473-0.002,4.942-0.368,7.441
		c-2.721-4.381-3.447-9.282-4.165-14.116c-3.448-23.227,2.954-43.979,16.113-62.984c3.093-4.467,7.413-7.474,12.8-10.338
		c-4.734-0.194-8.157,0.776-10.754,3.938c-3.39,4.126-6.78,8.252-10.183,12.368c-0.727,0.88-1.176,2.108-2.594,2.216
		c2.916-12.395,17.009-26.008,27.077-25.502c-2.759,0.94-4.862,1.9-7.046,4.133c3.565-0.292,6.437-0.532,9.31-0.761
		c10.525-0.838,18.347,4.044,24.259,12.132c8.576,11.731,12.778,24.973,12.243,39.526c1.078,0.588,1.668-0.184,2.307-0.632
		c8.151-5.723,16.255-11.516,24.458-17.163c1.857-1.277,2.57-2.677,2.669-4.944c0.227-5.198,0.876-10.377,1.304-15.568
		c0.262-3.174,2.888-3.838,5.12-4.707c5.419-2.108,11.125-3.202,16.814-4.307c3.665-0.711,7.264-2.031,11.565-1.194
		c-6.643,1.45-12.951,2.545-18.932,4.867c-2.771,1.076-5.571,2.086-7.742,4.227c-2.099,2.068-1.772,3.271,0.914,4.299
		c3.165,1.212,6.449,1.459,9.771,1.498c0.684,0.008,1.547-0.061,2.029-0.457c6.441-5.295,13.993-8.88,20.813-13.587
		c0.387-0.267,0.878-0.384,1.111-0.48c-0.91-2.212-2.449-0.712-3.937-2.064c5.575,0.563,9.034-2.679,12.965-4.989
		c10.296-6.057,21.675-9.156,33.166-12.019c10.041-2.502,20.209-2.336,30.394-2.106c2.603,0.058,3.46-0.591,3.431-3.299
		c-0.037-3.657,0.516-7.322,0.814-10.983c9.012,2.47,18.087,1.951,26.986-0.197c4.613-1.114,9.497-2.033,13.421-5.155
		c1.305-1.037,2.766-2.565,4.37-1.557c1.796,1.129,2.058,3.232,1.613,5.398c-1.341,6.544-3.512,12.728-7.344,18.271
		c-1.979,2.861-1.696,3.36,1.779,3.897c2.097,0.322,4.179,0.744,6.257,1.171c4.794,0.979,5.791,0.479,7.484-3.969
		c0.841-2.202,1.392-4.451,1.787-6.813c0.537-3.196,0.32-6.646,2.252-9.531c3.691,0.935,7.591-0.214,11.255,1.186
		c2.393,0.911,5.053,1.327,5.961,4.851c2.196-5.177,1.23-9.646,0.085-13.951c-1.091-4.091-2.537-8.101-4.885-11.757
		c-5.878-9.159-10.966-18.814-17.516-27.561c-2.223-2.968-4.584-5.758-7.404-8.127c-7.063-5.931-17.372-4.115-22.004,3.781
		c-1.805,3.079-3.109,6.376-4.493,9.649c-0.467,1.104-0.402,2.618-1.816,3.208c-0.211-0.154-0.543-0.312-0.525-0.394
		c1.555-7.091,3.803-13.928,8.559-19.567c3.178-3.77,11.737-4.626,17.329-2.202c5.905,2.561,10.037,7.097,13.535,12.233
		c8.201,12.049,16.242,24.203,24.392,36.286c2.604,3.863,5.662,7.284,9.772,9.684c1.285,0.749,2.748,1.437,3.589,2.991
		c-6.261,1.665-9.696,6.562-13.093,11.409c-2.1,2.999-3.836,6.25-5.793,9.353c-3.201,5.077-8.03,7.007-13.826,7.15
		c-9.127,0.226-18.311-0.862-27.372,0.702c-12.156,2.102-23.863,5.954-35.517,9.896c-3.313,1.121-4.206,4.246-4.203,7.569
		c-2.113-0.396-3.064-1.806-3.188-3.743c-0.137-2.124,1.424-3.126,3.053-3.955c10.407-5.301,21.569-8.514,32.707-11.79
		c2.15-0.634,4.325-1.252,6.378-2.132c1.004-0.432,2.415-1.025,2.35-2.405c-0.069-1.483-1.627-1.601-2.681-1.886
		c-7.316-1.978-14.638-3.933-22.197-4.815c-17.336-2.025-34.597-1.521-51.621,2.305c-15.112,3.397-27.333,11.671-38.288,22.638
		c-16.953,16.973-31.253,35.934-44.591,55.728c-2.125,3.153-3.862,6.529-5.339,10.028c-1.746,4.136-0.752,5.818,3.497,6.95
		c6.973,1.858,12.962-0.525,18.949-3.726c10.713-5.726,19.23-14.22,28.309-22.013c13.86-11.896,27.435-24.143,42.226-34.905
		c2.863-2.083,5.981-3.841,9.087-5.557c3.525-1.949,4.866-1.464,6.776,2.171c0.66,1.256,1.292,2.562,1.683,3.917
		c0.637,2.206-0.424,3.471-2.571,2.714c-4.633-1.635-8.623-0.01-12.56,1.998c-7.998,4.079-14.72,9.934-21.434,15.763
		c-11.816,10.262-23.597,20.563-35.314,30.936c-1.696,1.502-4.69,2.772-4.109,5.329c0.614,2.698,3.847,2.153,6.057,2.593
		c10.284,2.043,20.548,0.501,30.795-0.405c18.184-1.607,36.088-5.127,54.111-7.842c15.169-2.284,30.284-0.377,43.97,7.798
		c3.532,2.109,6.102,5.632,10.185,7.032c-4.827-1.044-9.621-2.293-14.49-3.09c-11.246-1.84-22.634-2.201-33.986-2.866
		c-25.082-1.471-49.978,1.257-74.93,3.148c-16.417,1.246-32.803,3.695-49.351,2.483c-2.125-0.156-4.261-0.349-6.353-0.734
		c-5.413-0.997-7.473-4.909-5.106-9.927c3.794-8.046,7.907-15.924,13.434-22.961c0.901-1.147,1.615-2.288,1.48-3.856
		c-0.326-3.78-0.587-7.566-0.829-11.354c-0.108-1.684-0.728-2.204-2.206-1.148c-9.078,6.475-18.147,12.962-27.24,19.416
		c-1.141,0.81-1.121,1.927-1.286,3.118c-1.814,13.138-3.799,26.24-9.304,38.481c-0.512,1.139-0.689,2.523-1.933,3.246l0.059,0.059
		c-0.064-4.668,1.791-8.979,2.508-13.511c1.256-7.937,2.238-15.901,3.028-23.892c0.061-0.622,0.391-1.664-0.612-1.704
		c-1.155-0.047-1.839,0.912-2.34,1.898C149.065,537.45,147.732,538.408,146.592,539.668z M211.09,496.168
		c-0.805-0.271-1.048-0.448-1.245-0.406c-6.505,1.382-10.731,6.42-15.906,9.938c-0.074,0.051-0.102,0.22-0.096,0.33
		c0.22,3.886,0.448,7.77,0.718,12.407C200.354,510.634,205.608,503.554,211.09,496.168z M193.794,496.696
		c0,0.996-0.04,1.826,0.014,2.649c0.038,0.575,0.542,0.893,0.976,0.606c2.063-1.357,4.091-2.773,6.086-4.229
		c0.454-0.332,0.285-0.888-0.196-1.137c-1.788-0.928-3.766-2.124-5.644-1.735C193.318,493.206,194.115,495.451,193.794,496.696z
		 M327.287,456.491c0.176-0.081,0.355-0.164,0.536-0.248c-0.088-0.064-0.176-0.185-0.263-0.185c-0.215,0-0.43,0.056-0.645,0.09
		C327.037,456.26,327.157,456.372,327.287,456.491z M310.086,454.209c-0.021-0.08-0.018-0.2-0.068-0.23
		c-0.084-0.05-0.229-0.09-0.303-0.05c-0.267,0.146-0.232,0.303,0.086,0.377C309.885,454.323,309.99,454.243,310.086,454.209z"/>
	<path fill="#545454" d="M171.597,584.129c1.445-6.2,1.798-12.654,4.585-18.545c1.042-2.201,2.276-3.33,4.875-3.018
		c3.881,0.469,7.799,0.646,11.704,0.914c1.153,0.08,2.235,0.104,1.663,1.771c-2.563,7.479-0.933,14.786,1.144,21.989
		c0.832,2.888,0.089,3.987-2.75,3.922c-4.749-0.11-8.876,1.782-13.922,4.06c3.495,0,6.005-0.017,8.516,0.003
		c8.313,0.064,16.606,0.546,24.858,1.515c2.296,0.271,2.851-0.107,2.537-2.521c-0.58-4.454-0.842-8.959-1.026-13.451
		c-0.257-6.258-1.424-12.2-5.598-17.613c5.702-1.162,11.096-1.232,16.433-1.566c2.699-0.169,4.05,2.377,5.131,4.413
		c4.122,7.765,6.73,16.166,9.939,24.314c0.593,1.506,0.244,2.091-1.333,2.437c-3.816,0.834-7.593,1.847-11.392,2.768
		c-2.093,0.507-3.929,1.466-5.523,2.675c11.006,7.95,23.374,10.249,36.505,10.864c26.564,1.243,52.98,4.334,79.369,7.575
		c2.352,0.288,4.734,0.482,7.09,0.005c6.142-1.247,8.201-3.881,8.177-10.377c3.216-12.979,12.289-21.662,21.849-30.052
		c1.632-1.434,4.017-2.191,4.729-4.595c1.621-0.41,2.986-2.73,4.755-1.333c1.903,1.506,1.785,3.733,1.269,6.15
		c-1.44,6.722-2.856,13.507-1.524,20.44c1.207,6.289,2.984,7.822,9.435,8.5c0.53,0.056,1.211-0.103,1.447,0.543
		c0.119,0.688-0.286,0.911-0.722,1.132c-11.547,5.844-23.364,11.045-36.188,13.315c-6.572,1.165-13.273,0.239-19.896-0.098
		c-14.216-0.724-28.419-1.704-42.624-2.631c-18.108-1.182-36.226-2.259-54.313-3.699c-7.73-0.615-14.942-3.568-22.107-6.433
		c-17.278-6.903-34.72-8.278-52.304-1.229c-8.997,3.605-18.285,2.125-27.458,1.683c-9.572-0.461-19.113-1.582-28.662-2.481
		c-12.498-1.176-24.997-2.354-37.479-3.688c-2.009-0.216-5.631-0.542-5.455-2.148c0.254-2.313,3.51-1.229,5.449-1.295
		c11.297-0.375,22.451,1.334,33.637,2.546c13.583,1.471,27.2,2.426,40.771,0.259c7.344-1.174,14.378-3.87,21.771-5.02
		c2.366-0.367,1.06-2.661,1.224-4.135C171.8,589.577,171.615,586.839,171.597,584.129z"/>
	<path fill="#545454" d="M399.319,620.422c-8.866,3.372-17.432,7.557-26.97,8.59c-6.132,0.664-11.73,3.519-18.004,3.904
		c-6.302,0.388-12.568,0.433-18.848,0.178c-20.273-0.82-40.548-1.693-60.817-2.637c-29.633-1.382-59.286-2.304-88.907-4.021
		c-11.254-0.651-22.487-1.509-33.73-2.282c-20.429-1.403-40.807-3.347-61.188-5.305c-5.611-0.539-11.272-0.464-16.778-1.903
		c-0.789-0.206-1.558-0.487-2.935-0.926c3.973-2.189,7.891-2.789,11.677-3.289c15.957-2.107,31.987-1.181,47.989-0.605
		c13.856,0.498,27.705,1.246,41.552,1.962c20.975,1.084,41.945,2.24,62.918,3.353c15.049,0.798,30.097,1.627,45.15,2.338
		c17.66,0.832,35.243,2.664,52.87,3.913c14.332,1.016,28.648,0.714,42.84-2.081C383.763,620.109,391.466,619.187,399.319,620.422z"
		/>
	<path fill="#979797" d="M548.268,386.909c-4.391,4.974-6.732,10.266-9.217,15.474c-0.659,1.38-1.722,1.402-2.946,1.338
		c-20.714-1.093-41.427-2.195-62.144-3.253c-11.012-0.563-22.024-1.079-33.042-1.559c-18.476-0.802-36.954-1.545-55.432-2.342
		c-3.901-0.168-4.359-1.183-2.791-4.902c0.991-2.349,2.801-3.753,4.786-5.067c5.563-3.685,11.024-6.607,18.372-5.907
		c12.611,1.2,25.335,1.196,38.009,1.766c19.653,0.886,39.303,1.878,58.958,2.729C517.626,385.825,532.435,386.313,548.268,386.909z"
		/>
	<path fill="#979797" d="M171.597,584.129c0.019,2.71,0.203,5.448-1.414,7.864c-8.268-0.241-16.49-1.005-24.712-1.896
		c-6.927-0.752-13.896-1.136-20.851-1.604c-15.917-1.068-31.837-2.091-48.495-3.18c3.919-2.8,7.399-5.239,10.828-7.75
		c3.05-2.231,6.131-4.438,9.035-6.852c2.707-2.252,4.327-5.275,5.158-8.704c0.485-2.001,0.988-3.892,3.716-3.851
		c0.952,0.016,1.797-0.619,1.309-1.923c-1.022-2.728-1.209-5.747-2.817-8.46c-1.829,1.09-1.478,3.205-2.664,4.702
		c-1.699-7.348-0.5-14.517,0.012-21.668c0.44-6.148,3.662-12.137,3.39-17.939c-0.279-5.964,3.739-8.677,5.684-12.854
		c2.108-4.53,5.261-8.361,9.493-11.289c9.478-6.557,20.896-3.454,25.85,6.954c5.107,10.732,7.255,21.969,6.531,33.794
		c-0.834,1.692-2.224,2.565-4.072,2.76c0.028-8.531,0.421-17.12-3.568-25.076c-0.779-1.556-1.628-3.075-2.764-4.529
		c-0.614,3.85,1.466,7.425,1.104,11.814c-1.823-2.4-2.502-4.73-3.168-6.986c-3.677-12.463-14.492-13.153-21.667-4.612
		c-5.112,6.083-7.441,12.905-8.65,20.58c-1.376,8.736-0.56,17.45-0.797,26.17c-0.01,0.356,0.003,0.712-0.002,1.068
		c-0.13,7.938-0.13,7.937,7.924,8.496c4.009,0.277,8.014,0.65,12.027,0.816c2.245,0.093,3.3,0.951,3.868,3.232
		c0.961,3.853,1.363,7.96,4.375,11.081c4.858,5.032,11.138,6.408,17.686,7.046c4.121,0.399,8.268,0.529,12.404,0.758
		C168.33,582.202,169.834,583.488,171.597,584.129z"/>
	<path fill="#979797" d="M379.157,571.615c-0.714,2.402-3.099,3.161-4.729,4.595c-9.56,8.39-18.633,17.071-21.849,30.052
		c-4.844,0.6-9.696,0.142-14.521-0.103c-15.734-0.795-31.46-1.758-47.183-2.763c-10.044-0.643-20.072-1.492-30.146-1.626
		c-1.832-0.022-3.672-0.864-5.467-1.455c-0.73-0.239-1.679-0.508-1.696-1.567c-0.017-1.05,0.954-1.314,1.621-1.699
		c4.499-2.599,9.59-3.336,14.555-4.317c16.591-3.283,33.145-6.743,49.554-10.831c7.396-1.844,14.179-5.313,20.726-9.184
		c1.238-0.732,2.412-1.498,3.917-1.481C355.677,571.364,367.417,571.489,379.157,571.615z"/>
	<path fill="#979797" d="M536.504,408.391c-1.83,4.335-3.565,8.345-5.214,12.391c-0.737,1.812-1.906,2.466-3.86,2.221
		c-14.349-1.805-28.804-2.156-43.211-3.167c-8.868-0.62-17.744-1.142-26.62-1.65c-22.251-1.278-44.506-2.513-66.757-3.795
		c-4.288-0.247-10.567-8.472-9.758-12.609c0.379-1.936,1.896-1.624,3.083-1.471c6.608,0.849,13.262,0.489,19.885,0.843
		c11.362,0.609,22.721,1.336,34.086,1.909c25.578,1.289,51.167,2.382,76.734,3.851C521.957,407.317,529.101,407.075,536.504,408.391
		z"/>
	<path fill="#545454" d="M577.198,383.979c-0.965,7.612-1.272,15.757-0.075,23.905c0.26,1.756,0.327,3.569,0.828,5.254
		c1.25,4.192-0.204,7.091-3.813,9.27c-8.804,5.313-16.996,11.656-26.712,15.416c-3.439,1.33-6.969,2.257-10.515,3.178
		c-3.85,1-5.494-0.272-5.264-4.356c0.257-4.518,1.151-9.023,2.909-13.126c4.364-10.193,8.122-20.683,14.509-29.937
		c4.887-7.08,11.255-12.068,19.209-15.11C573.611,376.432,577.206,378.486,577.198,383.979z"/>
	<path fill="#545454" d="M464.683,611.45c-8.107,4.167-15.784,6.727-24.233,6.953c-13.438,0.362-26.814-0.546-40.204-1.38
		c-1.225-0.075-2.75-0.104-3.166-1.149c-0.586-1.47,1.229-1.774,2.093-2.387c3.28-2.327,6.554-4.736,10.327-6.199
		c2.264-0.878,1.908-1.48,0.244-2.632c-5.003-3.454-9.479-7.482-13.338-12.219c-7.056-8.658-8.849-19.058-9.265-29.646
		c-0.699-17.78,2.269-35.097,8.227-51.877c3.296-9.281,6.992-18.513,13.704-25.809c7.248-7.88,16.854-12.067,27.278-14.229
		c6.49-1.349,12.567,1.072,19.417,2.329c-2.968,1.398-5.482,0.696-7.741,0.295c-8.959-1.598-16.434,1.713-22.983,7.105
		c-14.02,11.545-22.276,26.388-24.792,44.519c-1.429,10.293-2.153,20.603-2.21,31.351c-1.854-1.503-1.719-3.726-3.597-5.544
		c-0.505,3.979-0.384,7.345,0.179,10.817c1.746,10.778,5.647,20.759,11.041,30.154c8.309,14.475,21.295,20.117,37.545,19.583
		C450.085,611.263,456.975,611.45,464.683,611.45z"/>
	<path fill="#545454" d="M356.871,548.566c-11.788-8.165-24.488-9.653-37.972-8.23c-16.614,1.752-33.074,4.616-49.664,6.468
		c-11.764,1.312-23.531,3.063-35.54,1.979c3.072-0.635,6.141-1.286,9.218-1.897c3.25-0.646,6.504-1.264,9.759-1.88
		c7.67-1.454,15.349-2.865,23.008-4.377c1.814-0.357,3.722-0.836,4.347-3.438c-3.824,0.343-7.431,0.752-11.05,0.974
		c-7.935,0.484-15.875,0.849-23.791-0.322c-0.888-0.132-2.165,0.169-2.343-1.043c-0.154-1.046,0.948-1.561,1.763-2.014
		c5.996-3.332,12.017-6.619,18.011-9.955c9.053-5.037,17.376-11.102,25.105-17.989c1.769-1.576,3.398-3.239,4.861-5.149
		c2.604-3.403,2.958-6.767,1.101-10.587c-0.661-1.358-1.837-2.916,0.036-4.461c1.886-1.556,3.305-0.335,4.807,0.563
		c28.154,16.806,56.292,33.636,84.477,50.388c1.898,1.129,2.97,2.216,1.813,4.81c-6.234-3.635-12.446-7.234-18.637-10.87
		c-21.226-12.466-42.47-24.899-63.629-37.475c-2.575-1.53-3.618-1.447-4.03,1.654c-0.745,5.602-4.212,9.942-7,14.588
		c-3.572,5.949-6.63,12.009-5.977,19.309c0.473,5.298,2.107,7.146,7.278,6.813c11.496-0.741,22.991-0.988,34.46,0.146
		c9.801,0.969,19.562,2.297,27.537,8.968C355.61,546.196,356.721,546.591,356.871,548.566z"/>
	<path fill="#979797" d="M367.918,441.072c-1.932,2.887-1.715,6.335-2.252,9.531c-0.396,2.36-0.946,4.609-1.787,6.813
		c-1.693,4.446-2.69,4.946-7.484,3.968c-2.078-0.426-4.16-0.849-6.257-1.171c-3.477-0.537-3.757-1.036-1.779-3.897
		c3.832-5.543,6.003-11.727,7.344-18.271c0.443-2.166,0.183-4.271-1.612-5.398c-1.605-1.01-3.066,0.521-4.371,1.557
		c-3.924,3.122-8.808,4.041-13.42,5.155c-8.9,2.148-17.976,2.667-26.987,0.197c-0.411-9.791,3.438-17.525,11.667-22.76
		c8.4-5.344,17.757-6.941,27.249-4.063c7.142,2.165,13.815,5.676,17.354,13.066c1.691,3.532,1.766,7.298,2.135,11.039
		C367.853,438.242,367.854,439.661,367.918,441.072z"/>
	<path fill="#545454" d="M382.647,478.805c-0.741-1.132,0.396-1.35,0.93-1.733c9.561-6.886,16.481-15.905,21.769-26.351
		c3.887-7.679,8.062-9.298,16.306-6.539c23.185,7.759,45.657,17.049,65.938,31c2.04,1.403,2.936,2.157,4.235,4.412
		c-7.347-3.554-14.199-3.002-21.188-0.403c-6.205,2.309-10.801,6.159-13.962,11.947c-8.269,15.138-13.342,31.372-15.373,48.382
		c-1.02,8.534,0.503,17.266,1.083,25.898c0.091,1.351,0.384,2.729-0.237,4.344c-3.798-5.894-4.979-12.361-5.988-18.84
		c-3.349-21.455,2.985-40.754,13.643-58.942c4.246-7.247,10.318-12.661,18.491-15.363c2.837-0.938,5.688-1.633,8.725-1.03
		c1.146,0.227,2.384,0.414,3.572-1.079c-4.14-2.553-8.185-5.16-12.339-7.582c-7.774-4.533-15.561-9.082-24.322-11.534
		c-8.756-2.451-16.938-2.18-24.448,4.012c-9.87,8.136-21.164,13.887-33.133,18.321c-1.206,0.446-2.37,1.127-3.738,1L382.647,478.805
		z"/>
	<path fill="#545454" d="M105.341,470.325c-4.198,0-8.483-0.543-12.578,0.109c-9.5,1.513-16.313,7.588-22.643,14.373
		c-10.35,11.095-15.386,24.471-17.477,39.232c-1.281,9.049-1.466,18.17-2.054,27.264c-0.142,2.195,0.236,4.425,0.378,6.683
		c-1.989-0.695-0.715-3.619-3.291-4.159c-0.503,4.89,0.541,9.542,1.875,14.062c2.828,9.576,6.569,18.76,12.803,26.733
		c0.848,1.086,1.907,2.259,0.649,3.787c-1.428,1.736-2.638,0.223-3.705-0.377c-6.832-3.837-11.159-9.914-13.716-17.05
		c-6.194-17.28-6.537-34.825-2.105-52.66c2.515-10.115,5.369-20.081,10.022-29.385c7.817-15.628,18.769-27.565,37.403-29.705
		C95.75,468.676,100.547,469.065,105.341,470.325z"/>
	<path fill="#979797" d="M483.474,490.369c-2.389-0.782-3.809-1.318-5.269-1.702c-0.93-0.244-2.099-1.388-2.831-0.054
		c-0.784,1.432,0.635,2.098,1.591,2.71c6.107,3.917,9.584,9.65,11.472,16.49c0.908,3.293,1.258,6.641,0.543,10.159
		c-0.982-2.736-1.9-5.498-2.971-8.2c-0.693-1.75-1.441-3.521-2.456-5.094c-4.229-6.557-9.849-7.074-15.662-1.813
		c-7.199,6.516-9.789,15.035-11.249,24.201c-1.388,8.698-1.392,17.447-1.42,26.205c-0.011,2.836-0.104,5.651-0.992,8.732
		c-1.508-3.161-1.568-6.421-2.548-9.415c-0.311-0.948-0.141-2.469-1.428-2.521c-1.345-0.054-1.145,1.559-1.608,2.441
		c-0.27,0.513-0.437,1.078-1.045,2.631c0-7.382-0.491-13.789,0.098-20.098c1.405-15.062,7.135-28.753,14.492-41.807
		c2.227-3.951,4.783-7.422,9.869-8.356C477.014,483.971,480.171,486.025,483.474,490.369z"/>
	<path fill="#545454" d="M387.18,531.164c-10.874-11.118-21.396-21.352-36.163-26.03c4.915-2.457,17.569-5.569,23.649-5.871
		c6.639-0.328,13.276-0.365,19.921-0.108c2.025,0.078,2.704,0.293,1.747,2.601c-2.169,5.228-3.889,10.639-5.912,15.929
		C388.863,521.756,387.751,525.928,387.18,531.164z"/>
	<path fill="#545454" d="M470.994,456.046c5.396,0.169,10.447-1.264,15.482-2.881c9.661-3.106,13.098-9.188,10.651-19.135
		c-0.843-3.428-1.876-6.8-3.834-10.131c11.678,0.551,23.005,1.083,34.415,1.621c0.145,1.783-1.054,3.071-1.814,4.473
		c-6.835,12.596-12.79,25.571-17.63,39.075c-1.523,4.251-1.933,8.569-2.104,13.036c-2.925-4.328-2.729-9.013-1.992-13.775
		c1.483-9.573,6.307-17.762,10.814-26.08c2.201-4.062,4.373-8.139,6.604-12.182c0.774-1.402,0.75-2.049-1.14-2.147
		c-6.16-0.316-12.313-0.744-18.466-1.197c-3.017-0.224-1.947,1.45-1.374,2.836c2.154,5.206,2.798,10.582,0.807,15.879
		c-2.408,6.405-7.245,10.467-13.896,12.004C481.945,458.728,476.349,458.702,470.994,456.046z"/>
	<path fill="#545454" d="M351.784,500.795c17.967-14.938,40.186-19.331,61.818-25.448c-5.563,4.776-9.104,10.943-12.989,16.834
		c-0.75,1.138-1.541,1.613-2.905,1.413c-15.313-2.25-29.828,0.965-43.997,6.499C353.074,500.342,352.427,500.56,351.784,500.795z"/>
	<path fill="#545454" d="M376.537,399.222c-2.422-3.713-4.822-7.439-7.275-11.13c-0.854-1.284-0.135-2.173,0.506-3.207
		c2.117-3.425,5.449-5.638,8.413-8.123c5.521-4.63,11.337-8.922,18.177-11.559c3.723-1.435,5.699-0.876,6.567,2.063
		c1.338,4.521,0.002,8.081-3.403,8.786c-6.546,1.354-11.99,4.831-17.081,8.905C377.955,388.546,376.142,393.347,376.537,399.222z"/>
	<path fill="#545454" d="M484.745,522.344c-1.404-2.548-2.26-4.979-3.954-6.914c-4.372-4.994-9.008-4.59-12.081,1.217
		c-3.611,6.824-4.465,14.394-5.615,21.854c-0.91,5.905-1.609,11.846-2.738,17.788c-1.326-2.414-0.829-5.093-0.964-7.617
		c-0.598-11.161-0.202-22.235,3.555-32.947c1.07-3.052,2.495-5.899,4.582-8.349c4.782-5.611,12.28-4.468,15.225,2.263
		C484.526,513.691,485.407,518.835,484.745,522.344z"/>
	<path fill="#545454" d="M441.787,497.234c2.313-8.271,14.081-25.739,23.786-24.852c-8.951,6.103-15.019,14.629-21.688,22.594
		c-0.654,0.781-0.975,1.924-2.15,2.207L441.787,497.234z"/>
	<path fill="#979797" d="M146.592,539.668c1.14-1.26,2.473-2.218,4.132-2.671c-1.296,8.072-0.465,16.705-6.212,23.607l0.051,0.052
		c0.019-6.034,1.8-11.821,2.478-17.766C147.17,541.767,147.834,540.591,146.592,539.668z"/>
	<path fill="#545454" d="M382.608,478.723c-0.344,0.564-0.874,0.56-1.434,0.47c0.029-0.148,0.051-0.426,0.092-0.43
		c0.458-0.037,0.946-0.706,1.38,0.039C382.647,478.805,382.608,478.723,382.608,478.723z"/>
	<path fill="#545454" d="M148.083,574.144c-0.094,0.303-0.187,0.606-0.281,0.909c-0.401-0.488-0.259-0.761,0.34-0.852
		L148.083,574.144z"/>
	<path fill="#545454" d="M441.735,497.183c-0.047,0.073-0.095,0.147-0.142,0.221c0.063-0.057,0.128-0.113,0.191-0.17
		C441.787,497.234,441.735,497.183,441.735,497.183z"/>
	<path fill="#979797" d="M144.512,560.604c-0.085,0.103-0.171,0.203-0.257,0.305c0.018-0.063,0.016-0.153,0.057-0.181
		c0.069-0.046,0.166-0.051,0.251-0.072L144.512,560.604z"/>
	<path fill="#545454" d="M481.123,601.454c-0.166,0.313-0.412,0.597-0.736,0.304c-0.097-0.086,0.134-0.533,0.212-0.816
		C480.772,601.111,480.948,601.282,481.123,601.454z"/>
	<path fill="#FDFCFD" d="M517.322,499.299c0.328,0.1,0.603,0.296,0.364,0.634c-0.065,0.093-0.515-0.083-0.785-0.135
		C517.02,499.613,517.16,499.446,517.322,499.299z"/>
	<path fill="#FDFCFD" d="M211.09,496.168c-5.482,7.387-10.736,14.466-16.529,22.271c-0.27-4.639-0.498-8.521-0.718-12.407
		c-0.006-0.11,0.021-0.279,0.096-0.33c5.175-3.52,9.401-8.558,15.906-9.938C210.042,495.719,210.285,495.895,211.09,496.168z"/>
	<path fill="#FDFCFD" d="M193.794,496.696c0.321-1.245-0.476-3.49,1.235-3.846c1.878-0.389,3.856,0.809,5.644,1.735
		c0.481,0.249,0.65,0.805,0.196,1.137c-1.995,1.456-4.023,2.872-6.086,4.229c-0.434,0.285-0.938-0.031-0.976-0.606
		C193.754,498.522,193.794,497.692,193.794,496.696z"/>
	<path fill="#979797" d="M327.287,456.491c-0.129-0.119-0.25-0.23-0.369-0.343c0.213-0.034,0.428-0.09,0.644-0.09
		c0.087,0,0.175,0.119,0.263,0.185C327.643,456.327,327.463,456.41,327.287,456.491z"/>
	<path fill="#979797" d="M310.086,454.209c-0.096,0.034-0.201,0.114-0.285,0.097c-0.318-0.074-0.353-0.229-0.086-0.377
		c0.074-0.04,0.219,0,0.303,0.05C310.068,454.009,310.065,454.129,310.086,454.209z"/>
</g>
</svg>
